<?xml version="1.0" standalone="no"?><!DOCTYPE svg PUBLIC "-//W3C//DTD SVG 1.1//EN" "http://www.w3.org/Graphics/SVG/1.1/DTD/svg11.dtd"><svg t="1574065292602" class="icon" viewBox="0 0 1024 1024" version="1.1" xmlns="http://www.w3.org/2000/svg" p-id="3144" xmlns:xlink="http://www.w3.org/1999/xlink" width="128" height="128"><defs><style type="text/css"></style></defs><path d="M937.142793 233.476519 88.726787 233.476519c-11.30344 0-20.466124 9.162684-20.466124 20.466124s9.162684 20.466124 20.466124 20.466124l848.414983 0c11.30344 0 20.466124-9.162684 20.466124-20.466124S948.446233 233.476519 937.142793 233.476519z" p-id="3145" fill="#e6e6e6"></path><path d="M312.271096 200.318328c11.30344 0 20.466124-9.162684 20.466124-20.466124L332.73722 106.724697c0.62217-0.211824 1.765203-0.503467 3.651157-0.678452l358.412996 0c0.833995 0.26913 2.001587 0.77055 3.107781 1.678222l0 72.127737c0 11.30344 9.162684 20.466124 20.466124 20.466124s20.466124-9.162684 20.466124-20.466124L738.841402 101.252055c0-3.196809-0.748037-6.347568-2.185782-9.202593-10.579963-21.014616-30.492478-25.730011-36.344766-26.673499-1.078565-0.173962-2.168386-0.260943-3.261277-0.260943L335.563592 65.11502c-0.488117 0-0.977257 0.017396-1.463328 0.052189-15.485693 1.110287-27.155477 6.956436-34.68087 17.370623-4.815679 6.65763-6.622838 13.513782-7.271614 17.007349-0.229221 1.232061-0.343831 2.482541-0.343831 3.735068l0 76.574003C291.804972 191.155644 300.967656 200.318328 312.271096 200.318328z" p-id="3146" fill="#e6e6e6"></path><path d="M808.27682 348.499206c-11.30344 0-20.466124 9.162684-20.466124 20.466124l0 541.55206c0 3.221368-2.62171 5.845125-5.845125 5.849218l-541.057803 0.63138c-0.002047 0-0.004093 0-0.007163 0-1.99954 0-3.351328-0.930185-4.133134-1.710968-0.781806-0.781806-1.715061-2.133593-1.715061-4.137227L235.05241 368.96533c0-11.30344-9.162684-20.466124-20.466124-20.466124-11.302417 0-20.466124 9.162684-20.466124 20.466124l0 542.184463c0 12.505825 4.871961 24.25952 13.719466 33.096792 8.835226 8.824993 20.573571 13.68365 33.060977 13.68365 0.017396 0 0.035816 0 0.053212 0l541.058826-0.63138c25.76685-0.027629 46.730301-21.014616 46.730301-46.781466L828.742944 368.96533C828.742944 357.661889 819.580261 348.499206 808.27682 348.499206z" p-id="3147" fill="#e6e6e6"></path><path d="M516.380774 779.023566c-89.61297 0-158.183695-64.476477-163.046447-153.310711l-0.211824-3.869121-40.127929 0 0.217964 4.300956c2.543939 50.088792 23.674189 97.404424 59.500139 133.228327 38.538735 38.539758 89.561805 59.764152 143.66912 59.764152 57.32766 0 107.786888-21.583574 142.079926-60.775178l4.322445-4.939499 57.030901 57.029878L719.815069 674.237011 583.597665 674.237011l51.114145 51.117215-3.587712 4.306072C605.364411 760.570285 562.469462 779.023566 516.380774 779.023566z" p-id="3148" fill="#e6e6e6"></path><path d="M660.049894 472.034776c-38.538735-38.539758-89.560782-59.764152-143.668097-59.764152-57.328683 0-107.787912 21.583574-142.080949 60.775178l-4.322445 4.939499-57.030901-57.031924 0 136.218428 136.217405 0-51.116191-51.116191 3.589758-4.308119c25.75764-30.909987 68.651566-49.363268 114.742301-49.363268 89.611947 0 158.182672 64.476477 163.046447 153.309688l0.211824 3.869121 40.129976 0-0.220011-4.300956C717.006094 555.174312 695.874821 507.85868 660.049894 472.034776z" p-id="3149" fill="#e6e6e6"></path></svg>