<?xml version="1.0" standalone="no"?><!DOCTYPE svg PUBLIC "-//W3C//DTD SVG 1.1//EN" "http://www.w3.org/Graphics/SVG/1.1/DTD/svg11.dtd"><svg t="1573801541711" class="icon" viewBox="0 0 1314 1024" version="1.1" xmlns="http://www.w3.org/2000/svg" p-id="2546" xmlns:xlink="http://www.w3.org/1999/xlink" width="61.59375" height="48"><defs><style type="text/css"></style></defs><path d="M656.04096 64.14336c246.95808 0 447.88736 200.90368 447.88736 447.86176 0 246.92224-200.92928 447.85664-447.88736 447.85664-246.92224 0-447.82592-200.9344-447.82592-447.85664 0-246.95808 200.90368-447.86176 447.82592-447.86176m0-64.14336C373.3248 0 144.0768 229.248 144.0768 512c0 282.74688 229.18656 512 511.96928 512 282.7776 0 512.03072-229.248 512.03072-512S938.81856 0 656.04096 0z" p-id="2547" fill="#e6e6e6"></path><path d="M579.1488 261.07392H449.36704c-24.43264 0-44.29312 19.85536-44.29312 44.29312V435.1488c0 24.43264 19.85536 44.29312 44.29312 44.29312h129.78176c24.43264 0 44.29312-19.85536 44.29312-44.29312V305.36704c0.00512-24.43264-19.86048-44.29312-44.29312-44.29312z m0 283.47904H449.36704c-24.43264 0-44.29312 19.85536-44.29312 44.288v129.78688c0 24.43264 19.85536 44.29312 44.29312 44.29312h129.78176c24.43264 0 44.29312-19.86048 44.29312-44.29312v-129.78688c0.00512-24.35584-19.86048-44.288-44.29312-44.288z m283.62752-283.47904h-129.78176c-24.42752 0-44.288 19.85536-44.288 44.29312V435.1488c0 24.43264 19.86048 44.29312 44.288 44.29312h129.78176c24.43264 0 44.29824-19.85536 44.29824-44.29312V305.36704c0-24.43264-19.8656-44.29312-44.29824-44.29312z m0 283.47904h-129.78176c-24.42752 0-44.288 19.85536-44.288 44.288v129.78688c0 24.43264 19.86048 44.29312 44.288 44.29312h129.78176c24.43264 0 44.29824-19.86048 44.29824-44.29312v-129.78688c0-24.35584-19.8656-44.288-44.29824-44.288z" p-id="2548" fill="#e6e6e6" data-spm-anchor-id="a313x.7781069.0.i5" class=""></path></svg>